<svg width="500" height="500" viewBox="0 0 500 500" fill="none" xmlns="http://www.w3.org/2000/svg">
<rect width="500" height="500" rx="150" fill="#030207"/>
<path d="M250.5 296.091C245.354 296.091 241.183 300.263 241.183 305.409C241.183 310.555 245.354 314.727 250.5 314.727C255.646 314.727 259.817 310.555 259.817 305.409C259.817 300.263 255.646 296.091 250.5 296.091Z" fill="white"/>
<path fill-rule="evenodd" clip-rule="evenodd" d="M194.597 202.909C194.597 172.031 219.626 147 250.5 147C281.375 147 306.403 172.031 306.403 202.909C306.403 206.084 306.139 209.197 305.63 212.227H306.403C314.979 212.227 321.932 219.18 321.932 227.758V255.386C325.686 258.738 329.253 262.334 332.693 266.314C343.646 278.989 346.865 294.463 340.288 308.101C334.165 320.796 320.698 329.491 303.145 332.846C301.865 343.634 292.688 352 281.557 352H219.443C208.312 352 199.135 343.634 197.855 332.846C180.302 329.491 166.835 320.796 160.713 308.101C154.136 294.463 157.354 278.989 168.308 266.314C171.747 262.334 175.314 258.738 179.069 255.386V227.758C179.069 219.18 186.021 212.227 194.597 212.227H195.37C194.862 209.197 194.597 206.084 194.597 202.909ZM250.5 258.818C261.886 258.818 272.477 255.414 281.31 249.568C297.75 259.385 308.828 267.2 318.594 278.5C325.765 286.798 326.195 294.425 323.504 300.004C320.988 305.22 314.723 310.787 303.297 313.728V283.667C303.297 271.659 293.564 261.924 281.557 261.924H219.443C207.436 261.924 197.703 271.659 197.703 283.667V313.728C186.277 310.787 180.012 305.22 177.497 300.004C174.806 294.425 175.235 286.798 182.406 278.5C192.172 267.2 203.25 259.385 219.69 249.568C228.524 255.414 239.114 258.818 250.5 258.818ZM250.5 165.636C229.917 165.636 213.232 182.324 213.232 202.909C213.232 223.494 229.917 240.182 250.5 240.182C271.083 240.182 287.769 223.494 287.769 202.909C287.769 182.324 271.083 165.636 250.5 165.636ZM216.337 283.667C216.337 281.951 217.728 280.561 219.443 280.561H281.557C283.273 280.561 284.663 281.951 284.663 283.667V330.258C284.663 331.973 283.273 333.364 281.557 333.364H219.443C217.728 333.364 216.337 331.973 216.337 330.258V283.667Z" fill="white"/>
</svg>
