<svg width="500" height="500" viewBox="0 0 500 500" fill="none" xmlns="http://www.w3.org/2000/svg">
<rect width="500" height="500" rx="150" fill="#030207"/>
<path d="M250.501 306.818C244.233 306.818 239.152 311.906 239.152 318.182C239.152 324.457 244.233 329.545 250.501 329.545C256.769 329.545 261.849 324.457 261.849 318.182C261.849 311.906 256.769 306.818 250.501 306.818Z" fill="white"/>
<path fill-rule="evenodd" clip-rule="evenodd" d="M182.407 193.182C182.407 155.526 212.894 125 250.5 125C288.107 125 318.592 155.526 318.592 193.182C318.592 197.054 318.271 200.85 317.651 204.545H318.592C329.038 204.545 337.507 213.024 337.507 223.485V257.178C342.08 261.266 346.424 265.651 350.615 270.505C363.956 285.962 367.877 304.833 359.866 321.465C352.407 336.946 336.004 347.55 314.624 351.641C313.065 364.798 301.887 375 288.328 375H212.671C199.113 375 187.935 364.798 186.375 351.641C164.995 347.55 148.592 336.946 141.135 321.465C133.124 304.833 137.043 285.962 150.386 270.505C154.575 265.651 158.919 261.266 163.493 257.178V223.485C163.493 213.024 171.961 204.545 182.407 204.545H183.349C182.73 200.85 182.407 197.054 182.407 193.182ZM250.5 261.363C264.368 261.363 277.269 257.212 288.028 250.083C308.052 262.055 321.546 271.585 333.441 285.366C342.176 295.485 342.7 304.787 339.422 311.59C336.357 317.951 328.726 324.74 314.809 328.327V291.667C314.809 277.023 302.954 265.151 288.328 265.151H212.671C198.046 265.151 186.19 277.023 186.19 291.667V328.327C172.273 324.74 164.642 317.951 161.578 311.59C158.301 304.787 158.823 295.485 167.558 285.366C179.453 271.585 192.947 262.055 212.971 250.083C223.732 257.212 236.631 261.363 250.5 261.363ZM250.5 147.727C225.428 147.727 205.105 168.078 205.105 193.182C205.105 218.285 225.428 238.637 250.5 238.637C275.571 238.637 295.895 218.285 295.895 193.182C295.895 168.078 275.571 147.727 250.5 147.727ZM208.887 291.667C208.887 289.574 210.582 287.879 212.671 287.879H288.328C290.419 287.879 292.112 289.574 292.112 291.667V348.485C292.112 350.577 290.419 352.273 288.328 352.273H212.671C210.582 352.273 208.887 350.577 208.887 348.485V291.667Z" fill="white"/>
</svg>
