<svg width="205" height="205" viewBox="0 0 205 205" fill="none" xmlns="http://www.w3.org/2000/svg">
<path d="M102.5 149.091C97.3545 149.091 93.1831 153.263 93.1831 158.409C93.1831 163.555 97.3545 167.727 102.5 167.727C107.646 167.727 111.817 163.555 111.817 158.409C111.817 153.263 107.646 149.091 102.5 149.091Z" fill="#030207"/>
<path fill-rule="evenodd" clip-rule="evenodd" d="M46.5973 55.9091C46.5973 25.0314 71.6259 0 102.5 0C133.375 0 158.403 25.0314 158.403 55.9091C158.403 59.0839 158.139 62.1969 157.63 65.2273H158.403C166.979 65.2273 173.932 72.1804 173.932 80.7576V108.386C177.686 111.738 181.253 115.334 184.693 119.314C195.646 131.989 198.865 147.463 192.288 161.101C186.165 173.796 172.698 182.491 155.145 185.846C153.866 196.634 144.688 205 133.557 205H71.4431C60.3121 205 51.1349 196.634 49.8555 185.846C32.3023 182.491 18.8353 173.796 12.7128 161.101C6.13585 147.463 9.35433 131.989 20.3078 119.314C23.747 115.334 27.3145 111.738 31.0687 108.386V80.7576C31.0687 72.1804 38.0211 65.2273 46.5973 65.2273H47.3702C46.8619 62.1969 46.5973 59.0839 46.5973 55.9091ZM102.5 111.818C113.886 111.818 124.477 108.414 133.31 102.568C149.75 112.385 160.828 120.2 170.594 131.5C177.765 139.798 178.195 147.425 175.504 153.004C172.988 158.22 166.723 163.787 155.297 166.728V136.667C155.297 124.659 145.564 114.924 133.557 114.924H71.4431C59.4364 114.924 49.703 124.659 49.703 136.667V166.728C38.2775 163.787 32.0122 158.22 29.4968 153.004C26.8058 147.425 27.2352 139.798 34.4061 131.5C44.172 120.2 55.2502 112.385 71.6901 102.568C80.5238 108.414 91.1145 111.818 102.5 111.818ZM102.5 18.6364C81.9173 18.6364 65.2316 35.3239 65.2316 55.9091C65.2316 76.4943 81.9173 93.1818 102.5 93.1818C123.083 93.1818 139.769 76.4943 139.769 55.9091C139.769 35.3239 123.083 18.6364 102.5 18.6364ZM68.3373 136.667C68.3373 134.951 69.7278 133.561 71.4431 133.561H133.557C135.273 133.561 136.663 134.951 136.663 136.667V183.258C136.663 184.973 135.273 186.364 133.557 186.364H71.4431C69.7278 186.364 68.3373 184.973 68.3373 183.258V136.667Z" fill="#030207"/>
</svg>
