<?xml version="1.0" encoding="utf-8"?>
<!-- Generator: Adobe Illustrator 26.3.1, SVG Export Plug-In . SVG Version: 6.00 Build 0)  -->
<svg version="1.1" id="Layer_1" xmlns="http://www.w3.org/2000/svg" xmlns:xlink="http://www.w3.org/1999/xlink" x="0px" y="0px"
	 viewBox="0 0 51.02 51.02" style="enable-background:new 0 0 51.02 51.02;" xml:space="preserve">
<style type="text/css">
	.st0{fill:#FFFFFF;}
	.st1{fill:#102D69;}
</style>
<g>
	
		<ellipse transform="matrix(0.9665 -0.2567 0.2567 0.9665 -5.6934 7.4027)" class="st0" cx="25.51" cy="25.51" rx="25.51" ry="25.51"/>
	<g>
		<path class="st1" d="M30.17,35.37L30.17,35.37L30.17,35.37h-2.49h0v-7.62h-2.87v7.63h0v0h-2.2V14.94h0v0l2.26,0
			c0.85,0,2.13,0.19,3.04,1.31c0.47,0.57,0.76,1.33,0.86,2.09h0c0,0,0,0,0,0h-3.96v1.12h3.99c-0.02,0.41-0.07,0.84-0.24,1.29
			c-0.13,0.36-0.34,0.73-0.65,1.11c-0.63,0.78-1.65,1.51-3.11,1.51h-0.02v1.14c3.88,0,5.39,2.58,5.39,7.3V35.37z M33.3,32.25
			c0-4.19-1.35-7.01-4.86-8.25c1.11-0.46,1.78-1.15,2.22-1.68c0.85-0.97,1.19-2.16,1.19-3.29c0-0.91-0.25-2.72-1.85-3.97
			c-1.1-0.85-2.06-1.25-4.38-1.25h-1.17c-0.04,0-0.07,0-0.12,0H19.5v22.82h13.8V32.25z"/>
		<g>
			<g>
				<path class="st1" d="M20,46.73l0.46-1.5l-1.96-0.59l-0.46,1.5l-0.67-0.2l1.14-3.77l0.67,0.2L18.69,44l1.96,0.59l0.5-1.64
					l0.67,0.2l-1.14,3.77L20,46.73z"/>
				<path class="st1" d="M16.56,42.3c-0.11-0.45-0.31-0.76-0.62-0.94c-0.4-0.24-0.78-0.14-0.95,0.14c-0.42,0.71,1.6,1.23,0.81,2.57
					c-0.32,0.54-0.99,0.7-1.68,0.29c-0.5-0.3-0.68-0.65-0.85-1.2l0.58-0.21c0.12,0.45,0.24,0.71,0.58,0.91
					c0.33,0.2,0.63,0.16,0.8-0.12c0.43-0.73-1.59-1.28-0.81-2.58c0.33-0.55,1.05-0.79,1.85-0.32c0.47,0.28,0.73,0.67,0.87,1.27
					L16.56,42.3z"/>
				<path class="st1" d="M12.46,37.98L14,39.39l-2.66,2.92L9.8,40.9l0.43-0.47l1.03,0.94l0.65-0.72l-0.94-0.86l0.42-0.46l0.94,0.86
					l0.73-0.8l-1.03-0.94L12.46,37.98z"/>
				<path class="st1" d="M7.25,33.01c0.86-0.45,1.82-0.16,2.3,0.75c0.48,0.91,0.18,1.87-0.68,2.33l-2.07,1.09l-0.33-0.62l2.09-1.1
					c0.53-0.28,0.67-0.88,0.4-1.39c-0.27-0.51-0.84-0.73-1.37-0.45l-2.09,1.1L5.17,34.1L7.25,33.01z"/>
				<path class="st1" d="M7.44,27.58l0.11,0.48l-2.12,2.77l2.6-0.57l0.15,0.68l-3.85,0.84l-0.1-0.48l2.12-2.77l-2.6,0.57l-0.15-0.68
					L7.44,27.58z"/>
				<path class="st1" d="M7.41,26.09l-3.94,0.07l-0.01-0.7l3.94-0.07L7.41,26.09z"/>
				<path class="st1" d="M6.55,22.21l-2.6-1.53l0.13-0.74l3.63,2.18l-0.09,0.55l-4.15,0.87l0.13-0.74L6.55,22.21z"/>
				<path class="st1" d="M9.16,17.56L8.37,19.5l-3.65-1.48l0.79-1.94l0.59,0.24l-0.52,1.29l0.9,0.36l0.48-1.18l0.57,0.23l-0.48,1.18
					l1,0.41l0.52-1.29L9.16,17.56z"/>
				<path class="st1" d="M7.2,13.14c0.41-0.6,1.21-0.77,1.82-0.36c0.47,0.32,0.64,0.89,0.47,1.41c0.25-0.19,0.98,0.04,1.23-0.32
					c0.03-0.05,0.06-0.1,0.07-0.16l0.54,0.37c-0.04,0.13-0.1,0.23-0.16,0.32c-0.52,0.78-1.76,0.21-2,0.43l-0.18,0.27l1.13,0.76
					l-0.39,0.58l-3.27-2.21L7.2,13.14z M8.47,14.72l0.3-0.44c0.2-0.3,0.18-0.72-0.14-0.93c-0.32-0.21-0.72-0.09-0.92,0.21L7.4,14
					L8.47,14.72z"/>
				<path class="st1" d="M11.59,12.28c0.47,0.02,0.82-0.09,1.08-0.34c0.34-0.32,0.35-0.71,0.12-0.95c-0.57-0.6-1.62,1.2-2.69,0.07
					c-0.43-0.46-0.4-1.14,0.18-1.69c0.42-0.4,0.81-0.48,1.39-0.49l0.04,0.61c-0.46-0.01-0.75,0.04-1.03,0.31
					c-0.28,0.26-0.33,0.56-0.11,0.8c0.58,0.61,1.66-1.18,2.71-0.08c0.44,0.47,0.47,1.23-0.2,1.86c-0.4,0.38-0.84,0.52-1.47,0.49
					L11.59,12.28z"/>
				<path class="st1" d="M15.13,10.61l-2.19-3.28l0.58-0.39l2.19,3.28L15.13,10.61z"/>
				<path class="st1" d="M18.27,5.27l-1.11,0.49l1.33,3.02l-0.64,0.28l-1.33-3.02l-1.11,0.49l-0.26-0.59l2.86-1.26L18.27,5.27z"/>
				<path class="st1" d="M22.18,6.36l0.24,1.28l-0.69,0.13l-0.24-1.28l-1.83-2.34L20.43,4l1.26,1.67l0.57-2.01l0.77-0.15L22.18,6.36
					z"/>
				<path class="st1" d="M29.66,6.82c0.22,0.41,0.5,0.66,0.84,0.75c0.44,0.13,0.79-0.06,0.88-0.38c0.23-0.8-1.86-0.78-1.44-2.27
					c0.17-0.61,0.77-0.93,1.55-0.71c0.56,0.16,0.83,0.45,1.13,0.94l-0.5,0.35c-0.23-0.4-0.42-0.62-0.79-0.73
					c-0.37-0.1-0.65,0.01-0.74,0.32c-0.23,0.81,1.87,0.82,1.45,2.29c-0.18,0.62-0.81,1.03-1.7,0.78c-0.53-0.15-0.88-0.46-1.17-1.01
					L29.66,6.82z"/>
				<path class="st1" d="M36.94,7.4l-1.07-0.58l-1.57,2.9l-0.61-0.33l1.57-2.9L34.2,5.91l0.31-0.57l2.75,1.49L36.94,7.4z"/>
				<path class="st1" d="M36.73,10.42c0.18,0.13,0.21,0.38,0.08,0.56c-0.13,0.18-0.38,0.21-0.56,0.07
					c-0.18-0.13-0.21-0.38-0.08-0.55C36.31,10.33,36.56,10.29,36.73,10.42z"/>
				<path class="st1" d="M41.44,10.38c0.51,0.54,0.49,1.34-0.04,1.84c-0.53,0.5-1.36,0.46-1.85-0.06l-0.41-0.43l-0.98,0.93
					l-0.48-0.51l2.86-2.71L41.44,10.38z M39.62,11.29l0.35,0.37c0.26,0.28,0.68,0.31,0.95,0.05c0.27-0.26,0.26-0.67-0.01-0.95
					l-0.35-0.37L39.62,11.29z"/>
				<path class="st1" d="M41.32,16.84l-1.11-1.77l3.35-2.09l1.11,1.77l-0.54,0.34l-0.74-1.18l-0.82,0.51l0.67,1.08l-0.53,0.33
					l-0.67-1.08l-0.92,0.57l0.74,1.18L41.32,16.84z"/>
				<path class="st1" d="M45.97,19.51l-0.42-1.14l-3.09,1.14l-0.24-0.66l3.09-1.14l-0.42-1.14l0.61-0.22l1.08,2.93L45.97,19.51z"/>
				<path class="st1" d="M43.42,23.9l-0.31-2.07l3.9-0.58l0.31,2.07l-0.63,0.09l-0.2-1.38l-0.96,0.14l0.19,1.26l-0.61,0.09
					l-0.19-1.26l-1.07,0.16l0.2,1.38L43.42,23.9z"/>
				<path class="st1" d="M47.35,26.73c-0.04,0.73-0.65,1.28-1.38,1.24c-0.56-0.03-1.01-0.44-1.12-0.98c-0.12,0.29-0.87,0.46-0.9,0.9
					c0,0.06,0,0.11,0.02,0.18l-0.65-0.04c-0.03-0.13-0.04-0.25-0.03-0.36c0.06-0.93,1.41-1.07,1.5-1.38l0.02-0.32l-1.36-0.08
					l0.04-0.7l3.94,0.24L47.35,26.73z M45.46,26.01l-0.03,0.53c-0.02,0.37,0.21,0.71,0.59,0.73c0.38,0.02,0.67-0.29,0.69-0.65
					l0.03-0.53L45.46,26.01z"/>
				<path class="st1" d="M44.01,29.7c-0.41,0.22-0.66,0.5-0.76,0.84c-0.13,0.44,0.06,0.79,0.38,0.88c0.8,0.23,0.79-1.86,2.28-1.43
					c0.61,0.17,0.93,0.78,0.7,1.55c-0.16,0.56-0.45,0.83-0.95,1.13l-0.35-0.5c0.4-0.23,0.62-0.41,0.73-0.79
					c0.11-0.37-0.01-0.65-0.32-0.74c-0.81-0.23-0.83,1.87-2.29,1.45c-0.62-0.18-1.03-0.82-0.78-1.71c0.15-0.53,0.46-0.88,1.01-1.17
					L44.01,29.7z"/>
				<path class="st1" d="M44.71,35.94c-0.29,0.53-0.88,0.72-1.35,0.47c-0.36-0.2-0.56-0.57-0.51-0.96
					c-0.38,0.43-0.88,0.45-1.28,0.24c-0.53-0.29-0.69-0.95-0.38-1.53l0.68-1.26l3.47,1.87L44.71,35.94z M42.05,33.8l-0.24,0.45
					c-0.18,0.34-0.15,0.71,0.18,0.88c0.3,0.16,0.66,0.01,0.84-0.33l0.24-0.45L42.05,33.8z M43.57,34.62l-0.23,0.43
					c-0.15,0.28-0.06,0.56,0.21,0.71c0.29,0.16,0.57,0.03,0.74-0.28l0.2-0.36L43.57,34.62z"/>
				<path class="st1" d="M38.8,39.87c-0.72-0.65-0.77-1.66-0.08-2.42c0.69-0.76,1.7-0.81,2.42-0.16l1.74,1.57l-0.47,0.52l-1.75-1.59
					c-0.45-0.4-1.06-0.33-1.44,0.1c-0.39,0.43-0.4,1.04,0.05,1.44l1.75,1.59l-0.47,0.52L38.8,39.87z"/>
				<path class="st1" d="M37.61,43.69c-0.6,0.4-1.41,0.26-1.82-0.35c-0.31-0.47-0.26-1.07,0.1-1.48c-0.3,0.08-0.89-0.41-1.26-0.17
					c-0.05,0.03-0.09,0.07-0.13,0.12l-0.36-0.54c0.09-0.1,0.18-0.18,0.27-0.24c0.78-0.52,1.7,0.48,2.01,0.36l0.27-0.18l-0.76-1.13
					l0.58-0.39l2.19,3.28L37.61,43.69z M37.04,41.75l-0.45,0.3c-0.3,0.2-0.44,0.6-0.22,0.91c0.21,0.32,0.63,0.36,0.94,0.15l0.45-0.3
					L37.04,41.75z"/>
				<path class="st1" d="M31.07,45.47c0.34,0.26,0.79,0.34,1.25,0.18c0.74-0.26,1.07-1.02,0.81-1.75c-0.26-0.72-0.98-1.11-1.73-0.85
					c-0.38,0.14-0.66,0.41-0.78,0.75l0.17,0.47l1.04-0.37l0.19,0.53l-1.69,0.6l-0.43-1.23c0.17-0.62,0.64-1.16,1.3-1.39
					c1.07-0.38,2.24,0.18,2.62,1.25c0.38,1.07-0.18,2.24-1.25,2.62c-0.65,0.23-1.35,0.11-1.87-0.26L31.07,45.47z"/>
			</g>
		</g>
		<path class="st1" d="M26.9,4.63c0.33,0.37,0.3,0.94-0.07,1.27l0,0c-0.37,0.33-0.94,0.3-1.27-0.07l0,0
			c-0.33-0.37-0.3-0.94,0.07-1.27l0,0c0.11-0.1,0.23-0.16,0.36-0.2l0,0C26.31,4.28,26.66,4.37,26.9,4.63z"/>
		<path class="st1" d="M25.64,44.97c0.01,0,0.01,0,0.02,0l0,0c0.01,0,0.01,0,0.02,0l0,0c0.49,0.06,0.84,0.51,0.78,1l0,0
			c-0.06,0.49-0.51,0.84-1,0.78l0,0c-0.01,0-0.02,0-0.03,0l0,0c-0.01,0-0.01,0-0.02,0l0,0l0,0l0,0c-0.49-0.06-0.84-0.51-0.78-1.01
			l0,0c0-0.02,0.01-0.04,0.01-0.06l0,0C24.74,45.22,25.17,44.91,25.64,44.97z"/>
	</g>
</g>
</svg>
